<mxfile host="app.diagrams.net" agent="Mozilla/5.0 (Windows NT 10.0; Win64; x64) AppleWebKit/537.36 (KHTML, like Gecko) Chrome/129.0.0.0 Safari/537.36" version="24.7.17">
  <diagram name="Page-1" id="bdQkryqw3mX-BS9EmlIb">
    <mxGraphModel dx="2954" dy="1309" grid="1" gridSize="10" guides="1" tooltips="1" connect="1" arrows="1" fold="1" page="1" pageScale="1" pageWidth="827" pageHeight="1169" math="0" shadow="0">
      <root>
        <mxCell id="0" />
        <mxCell id="1" parent="0" />
        <mxCell id="aj5gt8JGxRN-Iiz5krqj-1" value="Start" style="whiteSpace=wrap;strokeWidth=2;" vertex="1" parent="1">
          <mxGeometry x="1069" y="20" width="95" height="49" as="geometry" />
        </mxCell>
        <mxCell id="aj5gt8JGxRN-Iiz5krqj-2" value="Login/Register" style="whiteSpace=wrap;strokeWidth=2;" vertex="1" parent="1">
          <mxGeometry x="1035" y="119" width="165" height="49" as="geometry" />
        </mxCell>
        <mxCell id="aj5gt8JGxRN-Iiz5krqj-3" value="Masukkan Username dan Password" style="whiteSpace=wrap;strokeWidth=2;" vertex="1" parent="1">
          <mxGeometry x="326" y="240" width="236" height="66" as="geometry" />
        </mxCell>
        <mxCell id="aj5gt8JGxRN-Iiz5krqj-4" value="Masukkan Username dan Password Baru" style="whiteSpace=wrap;strokeWidth=2;" vertex="1" parent="1">
          <mxGeometry x="786" y="240" width="236" height="66" as="geometry" />
        </mxCell>
        <mxCell id="aj5gt8JGxRN-Iiz5krqj-5" value="Validasi User" style="rhombus;strokeWidth=2;whiteSpace=wrap;" vertex="1" parent="1">
          <mxGeometry x="374" y="376" width="141" height="141" as="geometry" />
        </mxCell>
        <mxCell id="aj5gt8JGxRN-Iiz5krqj-6" value="Validasi Username" style="rhombus;strokeWidth=2;whiteSpace=wrap;" vertex="1" parent="1">
          <mxGeometry x="815" y="356" width="179" height="179" as="geometry" />
        </mxCell>
        <mxCell id="aj5gt8JGxRN-Iiz5krqj-7" value="Cek Role" style="rhombus;strokeWidth=2;whiteSpace=wrap;" vertex="1" parent="1">
          <mxGeometry x="356" y="608" width="111" height="111" as="geometry" />
        </mxCell>
        <mxCell id="aj5gt8JGxRN-Iiz5krqj-8" value="Login Gagal" style="whiteSpace=wrap;strokeWidth=2;" vertex="1" parent="1">
          <mxGeometry x="541" y="639" width="143" height="49" as="geometry" />
        </mxCell>
        <mxCell id="aj5gt8JGxRN-Iiz5krqj-9" value="Daftar Pengguna Baru" style="whiteSpace=wrap;strokeWidth=2;" vertex="1" parent="1">
          <mxGeometry x="734" y="639" width="215" height="49" as="geometry" />
        </mxCell>
        <mxCell id="aj5gt8JGxRN-Iiz5krqj-10" value="Username Sudah Digunakan" style="whiteSpace=wrap;strokeWidth=2;" vertex="1" parent="1">
          <mxGeometry x="999" y="639" width="257" height="49" as="geometry" />
        </mxCell>
        <mxCell id="aj5gt8JGxRN-Iiz5krqj-11" value="Menu Admin" style="whiteSpace=wrap;strokeWidth=2;" vertex="1" parent="1">
          <mxGeometry x="338" y="791" width="147" height="49" as="geometry" />
        </mxCell>
        <mxCell id="aj5gt8JGxRN-Iiz5krqj-12" value="Menu Pengguna" style="whiteSpace=wrap;strokeWidth=2;" vertex="1" parent="1">
          <mxGeometry x="1679" y="791" width="171" height="49" as="geometry" />
        </mxCell>
        <mxCell id="aj5gt8JGxRN-Iiz5krqj-13" value="Pilih Menu" style="rhombus;strokeWidth=2;whiteSpace=wrap;" vertex="1" parent="1">
          <mxGeometry x="350" y="890" width="122" height="122" as="geometry" />
        </mxCell>
        <mxCell id="aj5gt8JGxRN-Iiz5krqj-14" value="Input Nama dan Harga Menu" style="whiteSpace=wrap;strokeWidth=2;" vertex="1" parent="1">
          <mxGeometry x="39" y="1085" width="220" height="66" as="geometry" />
        </mxCell>
        <mxCell id="aj5gt8JGxRN-Iiz5krqj-15" value="Tampilkan Daftar Menu" style="whiteSpace=wrap;strokeWidth=2;" vertex="1" parent="1">
          <mxGeometry x="309" y="1093" width="225" height="49" as="geometry" />
        </mxCell>
        <mxCell id="aj5gt8JGxRN-Iiz5krqj-16" value="Edit Harga Menu" style="whiteSpace=wrap;strokeWidth=2;" vertex="1" parent="1">
          <mxGeometry x="584" y="1093" width="177" height="49" as="geometry" />
        </mxCell>
        <mxCell id="aj5gt8JGxRN-Iiz5krqj-17" value="Logout Admin" style="whiteSpace=wrap;strokeWidth=2;" vertex="1" parent="1">
          <mxGeometry x="1169" y="1093" width="157" height="49" as="geometry" />
        </mxCell>
        <mxCell id="aj5gt8JGxRN-Iiz5krqj-18" value="Pilih Menu" style="rhombus;strokeWidth=2;whiteSpace=wrap;" vertex="1" parent="1">
          <mxGeometry x="1703" y="890" width="122" height="122" as="geometry" />
        </mxCell>
        <mxCell id="aj5gt8JGxRN-Iiz5krqj-19" value="Tampilkan Daftar Menu" style="whiteSpace=wrap;strokeWidth=2;" vertex="1" parent="1">
          <mxGeometry x="1376" y="1093" width="225" height="49" as="geometry" />
        </mxCell>
        <mxCell id="aj5gt8JGxRN-Iiz5krqj-20" value="Beli Menu" style="whiteSpace=wrap;strokeWidth=2;" vertex="1" parent="1">
          <mxGeometry x="1652" y="1093" width="129" height="49" as="geometry" />
        </mxCell>
        <mxCell id="aj5gt8JGxRN-Iiz5krqj-21" value="Logout Pengguna" style="whiteSpace=wrap;strokeWidth=2;" vertex="1" parent="1">
          <mxGeometry x="1836" y="1093" width="181" height="49" as="geometry" />
        </mxCell>
        <mxCell id="aj5gt8JGxRN-Iiz5krqj-22" value="Menu Berhasil Ditambahkan" style="whiteSpace=wrap;strokeWidth=2;" vertex="1" parent="1">
          <mxGeometry x="20" y="1201" width="258" height="49" as="geometry" />
        </mxCell>
        <mxCell id="aj5gt8JGxRN-Iiz5krqj-23" value="Edit Harga Menu Berhasil" style="whiteSpace=wrap;strokeWidth=2;" vertex="1" parent="1">
          <mxGeometry x="554" y="1201" width="239" height="49" as="geometry" />
        </mxCell>
        <mxCell id="aj5gt8JGxRN-Iiz5krqj-24" value="Transaksi Sukses" style="whiteSpace=wrap;strokeWidth=2;" vertex="1" parent="1">
          <mxGeometry x="1628" y="1201" width="177" height="49" as="geometry" />
        </mxCell>
        <mxCell id="aj5gt8JGxRN-Iiz5krqj-25" value="Terima Kasih Telah Bertransaksi!" style="whiteSpace=wrap;strokeWidth=2;" vertex="1" parent="1">
          <mxGeometry x="1619" y="1300" width="194" height="66" as="geometry" />
        </mxCell>
        <mxCell id="aj5gt8JGxRN-Iiz5krqj-26" value="End" style="whiteSpace=wrap;strokeWidth=2;" vertex="1" parent="1">
          <mxGeometry x="1673" y="1416" width="86" height="49" as="geometry" />
        </mxCell>
        <mxCell id="aj5gt8JGxRN-Iiz5krqj-27" value="" style="curved=1;startArrow=none;endArrow=block;exitX=0.5;exitY=0.99;entryX=0.5;entryY=-0.01;rounded=0;" edge="1" parent="1" source="aj5gt8JGxRN-Iiz5krqj-1" target="aj5gt8JGxRN-Iiz5krqj-2">
          <mxGeometry relative="1" as="geometry">
            <Array as="points" />
          </mxGeometry>
        </mxCell>
        <mxCell id="aj5gt8JGxRN-Iiz5krqj-28" value="Login" style="curved=1;startArrow=none;endArrow=block;exitX=0;exitY=0.64;entryX=0.5;entryY=0;rounded=0;" edge="1" parent="1" source="aj5gt8JGxRN-Iiz5krqj-2" target="aj5gt8JGxRN-Iiz5krqj-3">
          <mxGeometry relative="1" as="geometry">
            <Array as="points">
              <mxPoint x="444" y="204" />
            </Array>
          </mxGeometry>
        </mxCell>
        <mxCell id="aj5gt8JGxRN-Iiz5krqj-29" value="Register" style="curved=1;startArrow=none;endArrow=block;exitX=0;exitY=0.97;entryX=0.5;entryY=0;rounded=0;" edge="1" parent="1" source="aj5gt8JGxRN-Iiz5krqj-2" target="aj5gt8JGxRN-Iiz5krqj-4">
          <mxGeometry relative="1" as="geometry">
            <Array as="points">
              <mxPoint x="904" y="204" />
            </Array>
          </mxGeometry>
        </mxCell>
        <mxCell id="aj5gt8JGxRN-Iiz5krqj-30" value="" style="curved=1;startArrow=none;endArrow=block;exitX=0.5;exitY=1;entryX=0.5;entryY=0;rounded=0;" edge="1" parent="1" source="aj5gt8JGxRN-Iiz5krqj-3" target="aj5gt8JGxRN-Iiz5krqj-5">
          <mxGeometry relative="1" as="geometry">
            <Array as="points" />
          </mxGeometry>
        </mxCell>
        <mxCell id="aj5gt8JGxRN-Iiz5krqj-31" value="" style="curved=1;startArrow=none;endArrow=block;exitX=0.5;exitY=1;entryX=0.5;entryY=0;rounded=0;" edge="1" parent="1" source="aj5gt8JGxRN-Iiz5krqj-4" target="aj5gt8JGxRN-Iiz5krqj-6">
          <mxGeometry relative="1" as="geometry">
            <Array as="points" />
          </mxGeometry>
        </mxCell>
        <mxCell id="aj5gt8JGxRN-Iiz5krqj-32" value="Valid" style="curved=1;startArrow=none;endArrow=block;exitX=0.37;exitY=0.99;entryX=0.5;entryY=0;rounded=0;" edge="1" parent="1" source="aj5gt8JGxRN-Iiz5krqj-5" target="aj5gt8JGxRN-Iiz5krqj-7">
          <mxGeometry relative="1" as="geometry">
            <Array as="points">
              <mxPoint x="411" y="572" />
            </Array>
          </mxGeometry>
        </mxCell>
        <mxCell id="aj5gt8JGxRN-Iiz5krqj-33" value="Invalid" style="curved=1;startArrow=none;endArrow=block;exitX=0.86;exitY=0.99;entryX=0.36;entryY=0;rounded=0;" edge="1" parent="1" source="aj5gt8JGxRN-Iiz5krqj-5" target="aj5gt8JGxRN-Iiz5krqj-8">
          <mxGeometry relative="1" as="geometry">
            <Array as="points">
              <mxPoint x="536" y="572" />
            </Array>
          </mxGeometry>
        </mxCell>
        <mxCell id="aj5gt8JGxRN-Iiz5krqj-34" value="Tersedia" style="curved=1;startArrow=none;endArrow=block;exitX=0.25;exitY=1;entryX=0.5;entryY=0;rounded=0;" edge="1" parent="1" source="aj5gt8JGxRN-Iiz5krqj-6" target="aj5gt8JGxRN-Iiz5krqj-9">
          <mxGeometry relative="1" as="geometry">
            <Array as="points">
              <mxPoint x="841" y="572" />
            </Array>
          </mxGeometry>
        </mxCell>
        <mxCell id="aj5gt8JGxRN-Iiz5krqj-35" value="Tidak Tersedia" style="curved=1;startArrow=none;endArrow=block;exitX=1;exitY=0.98;entryX=0.4;entryY=0;rounded=0;" edge="1" parent="1" source="aj5gt8JGxRN-Iiz5krqj-6" target="aj5gt8JGxRN-Iiz5krqj-10">
          <mxGeometry relative="1" as="geometry">
            <Array as="points">
              <mxPoint x="1037" y="572" />
            </Array>
          </mxGeometry>
        </mxCell>
        <mxCell id="aj5gt8JGxRN-Iiz5krqj-36" value="Admin" style="curved=1;startArrow=none;endArrow=block;exitX=0.5;exitY=1;entryX=0.5;entryY=0.01;rounded=0;" edge="1" parent="1" source="aj5gt8JGxRN-Iiz5krqj-7" target="aj5gt8JGxRN-Iiz5krqj-11">
          <mxGeometry relative="1" as="geometry">
            <Array as="points" />
          </mxGeometry>
        </mxCell>
        <mxCell id="aj5gt8JGxRN-Iiz5krqj-37" value="Pengguna" style="curved=1;startArrow=none;endArrow=block;exitX=0.99;exitY=0.53;entryX=0.5;entryY=0.01;rounded=0;" edge="1" parent="1" source="aj5gt8JGxRN-Iiz5krqj-7" target="aj5gt8JGxRN-Iiz5krqj-12">
          <mxGeometry relative="1" as="geometry">
            <Array as="points">
              <mxPoint x="1764" y="755" />
            </Array>
          </mxGeometry>
        </mxCell>
        <mxCell id="aj5gt8JGxRN-Iiz5krqj-38" value="" style="curved=1;startArrow=none;endArrow=block;exitX=0.5;exitY=1;entryX=0.5;entryY=0;rounded=0;" edge="1" parent="1" source="aj5gt8JGxRN-Iiz5krqj-11" target="aj5gt8JGxRN-Iiz5krqj-13">
          <mxGeometry relative="1" as="geometry">
            <Array as="points" />
          </mxGeometry>
        </mxCell>
        <mxCell id="aj5gt8JGxRN-Iiz5krqj-39" value="Tambah Menu" style="curved=1;startArrow=none;endArrow=block;exitX=0;exitY=0.69;entryX=0.5;entryY=-0.01;rounded=0;" edge="1" parent="1" source="aj5gt8JGxRN-Iiz5krqj-13" target="aj5gt8JGxRN-Iiz5krqj-14">
          <mxGeometry relative="1" as="geometry">
            <Array as="points">
              <mxPoint x="149" y="1048" />
            </Array>
          </mxGeometry>
        </mxCell>
        <mxCell id="aj5gt8JGxRN-Iiz5krqj-40" value="Lihat Menu" style="curved=1;startArrow=none;endArrow=block;exitX=0.56;exitY=1;entryX=0.5;entryY=0.01;rounded=0;" edge="1" parent="1" source="aj5gt8JGxRN-Iiz5krqj-13" target="aj5gt8JGxRN-Iiz5krqj-15">
          <mxGeometry relative="1" as="geometry">
            <Array as="points">
              <mxPoint x="422" y="1048" />
            </Array>
          </mxGeometry>
        </mxCell>
        <mxCell id="aj5gt8JGxRN-Iiz5krqj-41" value="Edit Harga" style="curved=1;startArrow=none;endArrow=block;exitX=1;exitY=0.69;entryX=0.5;entryY=0.01;rounded=0;" edge="1" parent="1" source="aj5gt8JGxRN-Iiz5krqj-13" target="aj5gt8JGxRN-Iiz5krqj-16">
          <mxGeometry relative="1" as="geometry">
            <Array as="points">
              <mxPoint x="673" y="1048" />
            </Array>
          </mxGeometry>
        </mxCell>
        <mxCell id="aj5gt8JGxRN-Iiz5krqj-42" value="Logout" style="curved=1;startArrow=none;endArrow=block;exitX=1;exitY=0.62;entryX=0;entryY=0.24;rounded=0;" edge="1" parent="1" source="aj5gt8JGxRN-Iiz5krqj-13" target="aj5gt8JGxRN-Iiz5krqj-17">
          <mxGeometry relative="1" as="geometry">
            <Array as="points">
              <mxPoint x="824" y="1048" />
            </Array>
          </mxGeometry>
        </mxCell>
        <mxCell id="aj5gt8JGxRN-Iiz5krqj-43" value="" style="curved=1;startArrow=none;endArrow=block;exitX=0.5;exitY=1;entryX=0.5;entryY=0;rounded=0;" edge="1" parent="1" source="aj5gt8JGxRN-Iiz5krqj-12" target="aj5gt8JGxRN-Iiz5krqj-18">
          <mxGeometry relative="1" as="geometry">
            <Array as="points" />
          </mxGeometry>
        </mxCell>
        <mxCell id="aj5gt8JGxRN-Iiz5krqj-44" value="Lihat Menu" style="curved=1;startArrow=none;endArrow=block;exitX=0;exitY=0.68;entryX=0.5;entryY=0.01;rounded=0;" edge="1" parent="1" source="aj5gt8JGxRN-Iiz5krqj-18" target="aj5gt8JGxRN-Iiz5krqj-19">
          <mxGeometry relative="1" as="geometry">
            <Array as="points">
              <mxPoint x="1489" y="1048" />
            </Array>
          </mxGeometry>
        </mxCell>
        <mxCell id="aj5gt8JGxRN-Iiz5krqj-45" value="Beli Tahu Tek" style="curved=1;startArrow=none;endArrow=block;exitX=0.26;exitY=1;entryX=0.5;entryY=0.01;rounded=0;" edge="1" parent="1" source="aj5gt8JGxRN-Iiz5krqj-18" target="aj5gt8JGxRN-Iiz5krqj-20">
          <mxGeometry relative="1" as="geometry">
            <Array as="points">
              <mxPoint x="1716" y="1048" />
            </Array>
          </mxGeometry>
        </mxCell>
        <mxCell id="aj5gt8JGxRN-Iiz5krqj-46" value="Logout" style="curved=1;startArrow=none;endArrow=block;exitX=0.94;exitY=1;entryX=0.35;entryY=0.01;rounded=0;" edge="1" parent="1" source="aj5gt8JGxRN-Iiz5krqj-18" target="aj5gt8JGxRN-Iiz5krqj-21">
          <mxGeometry relative="1" as="geometry">
            <Array as="points">
              <mxPoint x="1849" y="1048" />
            </Array>
          </mxGeometry>
        </mxCell>
        <mxCell id="aj5gt8JGxRN-Iiz5krqj-47" value="" style="curved=1;startArrow=none;endArrow=block;exitX=0.5;exitY=1;entryX=0.5;entryY=0;rounded=0;" edge="1" parent="1" source="aj5gt8JGxRN-Iiz5krqj-14" target="aj5gt8JGxRN-Iiz5krqj-22">
          <mxGeometry relative="1" as="geometry">
            <Array as="points" />
          </mxGeometry>
        </mxCell>
        <mxCell id="aj5gt8JGxRN-Iiz5krqj-48" value="" style="curved=1;startArrow=none;endArrow=block;exitX=0.5;exitY=1;entryX=0.5;entryY=0;rounded=0;" edge="1" parent="1" source="aj5gt8JGxRN-Iiz5krqj-16" target="aj5gt8JGxRN-Iiz5krqj-23">
          <mxGeometry relative="1" as="geometry">
            <Array as="points" />
          </mxGeometry>
        </mxCell>
        <mxCell id="aj5gt8JGxRN-Iiz5krqj-49" value="" style="curved=1;startArrow=none;endArrow=block;exitX=0.5;exitY=1;entryX=0.5;entryY=0;rounded=0;" edge="1" parent="1" source="aj5gt8JGxRN-Iiz5krqj-20" target="aj5gt8JGxRN-Iiz5krqj-24">
          <mxGeometry relative="1" as="geometry">
            <Array as="points" />
          </mxGeometry>
        </mxCell>
        <mxCell id="aj5gt8JGxRN-Iiz5krqj-50" value="" style="curved=1;startArrow=none;endArrow=block;exitX=0.6;exitY=0.01;entryX=0.92;entryY=0.99;rounded=0;" edge="1" parent="1" source="aj5gt8JGxRN-Iiz5krqj-17" target="aj5gt8JGxRN-Iiz5krqj-2">
          <mxGeometry relative="1" as="geometry">
            <Array as="points">
              <mxPoint x="1290" y="1048" />
              <mxPoint x="1290" y="204" />
            </Array>
          </mxGeometry>
        </mxCell>
        <mxCell id="aj5gt8JGxRN-Iiz5krqj-51" value="" style="curved=1;startArrow=none;endArrow=block;exitX=0.5;exitY=0.01;entryX=0.99;entryY=0.62;rounded=0;" edge="1" parent="1" source="aj5gt8JGxRN-Iiz5krqj-21" target="aj5gt8JGxRN-Iiz5krqj-2">
          <mxGeometry relative="1" as="geometry">
            <Array as="points">
              <mxPoint x="1927" y="204" />
            </Array>
          </mxGeometry>
        </mxCell>
        <mxCell id="aj5gt8JGxRN-Iiz5krqj-52" value="" style="curved=1;startArrow=none;endArrow=block;exitX=0.57;exitY=0;entryX=0;entryY=0.71;rounded=0;" edge="1" parent="1" source="aj5gt8JGxRN-Iiz5krqj-8" target="aj5gt8JGxRN-Iiz5krqj-2">
          <mxGeometry relative="1" as="geometry">
            <Array as="points">
              <mxPoint x="650" y="572" />
              <mxPoint x="650" y="204" />
            </Array>
          </mxGeometry>
        </mxCell>
        <mxCell id="aj5gt8JGxRN-Iiz5krqj-53" value="" style="curved=1;startArrow=none;endArrow=block;exitX=0.57;exitY=0;entryX=0.69;entryY=0.99;rounded=0;" edge="1" parent="1" source="aj5gt8JGxRN-Iiz5krqj-10" target="aj5gt8JGxRN-Iiz5krqj-2">
          <mxGeometry relative="1" as="geometry">
            <Array as="points">
              <mxPoint x="1199" y="572" />
              <mxPoint x="1199" y="204" />
            </Array>
          </mxGeometry>
        </mxCell>
        <mxCell id="aj5gt8JGxRN-Iiz5krqj-54" value="" style="curved=1;startArrow=none;endArrow=block;exitX=0.5;exitY=0.99;entryX=0.5;entryY=-0.01;rounded=0;" edge="1" parent="1" source="aj5gt8JGxRN-Iiz5krqj-24" target="aj5gt8JGxRN-Iiz5krqj-25">
          <mxGeometry relative="1" as="geometry">
            <Array as="points" />
          </mxGeometry>
        </mxCell>
        <mxCell id="aj5gt8JGxRN-Iiz5krqj-55" value="" style="curved=1;startArrow=none;endArrow=block;exitX=0.5;exitY=1;entryX=0.5;entryY=0;rounded=0;" edge="1" parent="1" source="aj5gt8JGxRN-Iiz5krqj-25" target="aj5gt8JGxRN-Iiz5krqj-26">
          <mxGeometry relative="1" as="geometry">
            <Array as="points" />
          </mxGeometry>
        </mxCell>
      </root>
    </mxGraphModel>
  </diagram>
</mxfile>
